<?xml version="1.0" encoding="UTF-8" standalone="no"?>
<!DOCTYPE svg PUBLIC "-//W3C//DTD SVG 1.1//EN"
 "http://www.w3.org/Graphics/SVG/1.1/DTD/svg11.dtd">
<!-- Generated by graphviz version 2.26.3 (20100126.1600)
 -->
<!-- Title: models_diagram Pages: 1 -->
<svg width="243pt" height="494pt"
 viewBox="0.00 0.00 243.00 494.00" xmlns="http://www.w3.org/2000/svg" xmlns:xlink="http://www.w3.org/1999/xlink">
<g id="graph1" class="graph" transform="scale(1 1) rotate(0) translate(4 490)">
<title>models_diagram</title>
<polygon fill="white" stroke="white" points="-4,5 -4,-490 240,-490 240,5 -4,5"/>
<!-- Movie -->
<g id="node1" class="node"><title>Movie</title>
<polyline fill="none" stroke="black" points="66.5,-361 207.5,-361 "/>
<path fill="none" stroke="black" d="M207.5,-361C213.5,-361 219.5,-367 219.5,-373"/>
<polyline fill="none" stroke="black" points="219.5,-373 219.5,-473 "/>
<path fill="none" stroke="black" d="M219.5,-473C219.5,-479 213.5,-485 207.5,-485"/>
<polyline fill="none" stroke="black" points="207.5,-485 66.5,-485 "/>
<path fill="none" stroke="black" d="M66.5,-485C60.5,-485 54.5,-479 54.5,-473"/>
<polyline fill="none" stroke="black" points="54.5,-473 54.5,-373 "/>
<path fill="none" stroke="black" d="M54.5,-373C54.5,-367 60.5,-361 66.5,-361"/>
<text text-anchor="middle" x="137" y="-468.4" font-family="Times Roman,serif" font-size="14.00">Movie</text>
<polyline fill="none" stroke="black" points="54.5,-459 219.5,-459 "/>
<text text-anchor="start" x="62.5" y="-442.4" font-family="Times Roman,serif" font-size="14.00">id :integer</text>
<text text-anchor="start" x="62.5" y="-424.4" font-family="Times Roman,serif" font-size="14.00">title :string</text>
<text text-anchor="start" x="62.5" y="-406.4" font-family="Times Roman,serif" font-size="14.00">duration :integer</text>
<text text-anchor="start" x="62.5" y="-388.4" font-family="Times Roman,serif" font-size="14.00">created_at :datetime</text>
<text text-anchor="start" x="62.5" y="-370.4" font-family="Times Roman,serif" font-size="14.00">updated_at :datetime</text>
</g>
<!-- Actor -->
<g id="node2" class="node"><title>Actor</title>
<polyline fill="none" stroke="black" points="11.5,-199 152.5,-199 "/>
<path fill="none" stroke="black" d="M152.5,-199C158.5,-199 164.5,-205 164.5,-211"/>
<polyline fill="none" stroke="black" points="164.5,-211 164.5,-311 "/>
<path fill="none" stroke="black" d="M164.5,-311C164.5,-317 158.5,-323 152.5,-323"/>
<polyline fill="none" stroke="black" points="152.5,-323 11.5,-323 "/>
<path fill="none" stroke="black" d="M11.5,-323C5.5,-323 -0.5,-317 -0.5,-311"/>
<polyline fill="none" stroke="black" points="-0.5,-311 -0.5,-211 "/>
<path fill="none" stroke="black" d="M-0.5,-211C-0.5,-205 5.5,-199 11.5,-199"/>
<text text-anchor="middle" x="82" y="-306.4" font-family="Times Roman,serif" font-size="14.00">Actor</text>
<polyline fill="none" stroke="black" points="-0.5,-297 164.5,-297 "/>
<text text-anchor="start" x="7.5" y="-280.4" font-family="Times Roman,serif" font-size="14.00">id :integer</text>
<text text-anchor="start" x="7.5" y="-262.4" font-family="Times Roman,serif" font-size="14.00">first_name :string</text>
<text text-anchor="start" x="7.5" y="-244.4" font-family="Times Roman,serif" font-size="14.00">last_name :string</text>
<text text-anchor="start" x="7.5" y="-226.4" font-family="Times Roman,serif" font-size="14.00">created_at :datetime</text>
<text text-anchor="start" x="7.5" y="-208.4" font-family="Times Roman,serif" font-size="14.00">updated_at :datetime</text>
</g>
<!-- Movie&#45;&gt;Actor -->
<g id="edge2" class="edge"><title>Movie&#45;&gt;Actor</title>
<path fill="none" stroke="#30b7d7" d="M112.601,-351.134C110.511,-344.977 108.396,-338.749 106.307,-332.594"/>
<polygon fill="#30b7d7" stroke="#30b7d7" points="112.678,-351.361 111.632,-362.277 114.285,-356.095 115.893,-360.83 115.893,-360.83 115.893,-360.83 114.285,-356.095 120.154,-359.383 112.678,-351.361 112.678,-351.361"/>
<polygon fill="#30b7d7" stroke="#30b7d7" points="106.266,-332.473 107.312,-321.557 104.658,-327.738 103.051,-323.004 103.051,-323.004 103.051,-323.004 104.658,-327.738 98.7895,-324.45 106.266,-332.473 106.266,-332.473"/>
</g>
<!-- Comment -->
<g id="node3" class="node"><title>Comment</title>
<polyline fill="none" stroke="black" points="51,-1 223,-1 "/>
<path fill="none" stroke="black" d="M223,-1C229,-1 235,-7 235,-13"/>
<polyline fill="none" stroke="black" points="235,-13 235,-149 "/>
<path fill="none" stroke="black" d="M235,-149C235,-155 229,-161 223,-161"/>
<polyline fill="none" stroke="black" points="223,-161 51,-161 "/>
<path fill="none" stroke="black" d="M51,-161C45,-161 39,-155 39,-149"/>
<polyline fill="none" stroke="black" points="39,-149 39,-13 "/>
<path fill="none" stroke="black" d="M39,-13C39,-7 45,-1 51,-1"/>
<text text-anchor="middle" x="137" y="-144.4" font-family="Times Roman,serif" font-size="14.00">Comment</text>
<polyline fill="none" stroke="black" points="39,-135 235,-135 "/>
<text text-anchor="start" x="47" y="-118.4" font-family="Times Roman,serif" font-size="14.00">id :integer</text>
<text text-anchor="start" x="47" y="-100.4" font-family="Times Roman,serif" font-size="14.00">content :text</text>
<text text-anchor="start" x="47" y="-82.4" font-family="Times Roman,serif" font-size="14.00">commentable_id :integer</text>
<text text-anchor="start" x="47" y="-64.4" font-family="Times Roman,serif" font-size="14.00">commentable_type :string</text>
<text text-anchor="start" x="47" y="-46.4" font-family="Times Roman,serif" font-size="14.00">ancestry :string</text>
<text text-anchor="start" x="47" y="-28.4" font-family="Times Roman,serif" font-size="14.00">created_at :datetime</text>
<text text-anchor="start" x="47" y="-10.4" font-family="Times Roman,serif" font-size="14.00">updated_at :datetime</text>
</g>
<!-- Movie&#45;&gt;Comment -->
<g id="edge4" class="edge"><title>Movie&#45;&gt;Comment</title>
<path fill="none" stroke="#53a09c" d="M165.794,-353.123C168.765,-343.48 171.31,-333.593 173,-324 182.716,-268.849 181.327,-253.377 173,-198 171.666,-189.126 169.792,-179.996 167.593,-170.936"/>
<ellipse fill="none" stroke="#53a09c" cx="164.552" cy="-356.985" rx="4.00001" ry="4.00001"/>
<polygon fill="#53a09c" stroke="#53a09c" points="167.568,-170.836 169.45,-160.033 166.329,-165.992 165.09,-161.148 165.09,-161.148 165.09,-161.148 166.329,-165.992 160.73,-162.263 167.568,-170.836 167.568,-170.836"/>
</g>
<!-- Actor&#45;&gt;Comment -->
<g id="edge6" class="edge"><title>Actor&#45;&gt;Comment</title>
<path fill="none" stroke="#d9cc32" d="M103.371,-191.06C105.373,-184.507 107.421,-177.804 109.469,-171.1"/>
<ellipse fill="none" stroke="#d9cc32" cx="102.174" cy="-194.977" rx="4.00001" ry="4.00001"/>
<polygon fill="#d9cc32" stroke="#d9cc32" points="109.543,-170.859 116.769,-162.61 111.004,-166.077 112.465,-161.295 112.465,-161.295 112.465,-161.295 111.004,-166.077 108.162,-159.98 109.543,-170.859 109.543,-170.859"/>
</g>
</g>
</svg>
